<svg xmlns="http://www.w3.org/2000/svg" viewBox="0 0 1128 552">
	<defs>

		<svg id="accepted" width="24" height="18" viewBox="0 0 24 18" fill="none" xmlns="http://www.w3.org/2000/svg">
			<path
				d="M10.7391 11.0836L16.561 5.48667L15.7241 4.67803L10.7391 9.4947L8.24661 7.08637L7.41647 7.88848L10.7391 11.0836ZM0 17.5V16.3667H24V17.5H0ZM3.33847 15.2333C2.79852 15.2333 2.34773 15.0586 1.98607 14.7092C1.62442 14.3597 1.44359 13.9242 1.44359 13.4027V2.3309C1.44359 1.80919 1.62442 1.37361 1.98607 1.02417C2.34773 0.674722 2.79852 0.5 3.33847 0.5H20.6615C21.2015 0.5 21.6523 0.674722 22.0139 1.02417C22.3756 1.37361 22.5564 1.80919 22.5564 2.3309V13.4027C22.5564 13.9242 22.3756 14.3597 22.0139 14.7092C21.6523 15.0586 21.2015 15.2333 20.6615 15.2333H3.33847ZM3.33847 14.1H20.6615C20.8422 14.1 21.0077 14.0274 21.158 13.8821C21.3083 13.7369 21.3835 13.5771 21.3835 13.4027V2.3309C21.3835 2.15656 21.3083 1.99666 21.158 1.85122C21.0077 1.70596 20.8422 1.63333 20.6615 1.63333H3.33847C3.15783 1.63333 2.99235 1.70596 2.84202 1.85122C2.69169 1.99666 2.61652 2.15656 2.61652 2.3309V13.4027C2.61652 13.5771 2.69169 13.7369 2.84202 13.8821C2.99235 14.0274 3.15783 14.1 3.33847 14.1Z"
				fill="currentColor" />
		</svg>

		<svg id="rejected" width="19" height="14" viewBox="0 0 19 14" fill="none" xmlns="http://www.w3.org/2000/svg">
			<path
				d="M7.15 10.3077L9.75 7.70775L12.35 10.3077L13.0577 9.6L10.4578 7L13.0577 4.4L12.35 3.69225L9.75 6.29225L7.15 3.69225L6.44225 4.4L9.04225 7L6.44225 9.6L7.15 10.3077ZM2.3655 14C1.90517 14 1.52083 13.8458 1.2125 13.5375C0.904167 13.2292 0.75 12.8448 0.75 12.3845V1.6155C0.75 1.15517 0.904167 0.770833 1.2125 0.4625C1.52083 0.154167 1.90517 0 2.3655 0H17.1345C17.5948 0 17.9792 0.154167 18.2875 0.4625C18.5958 0.770833 18.75 1.15517 18.75 1.6155V12.3845C18.75 12.8448 18.5958 13.2292 18.2875 13.5375C17.9792 13.8458 17.5948 14 17.1345 14H2.3655ZM2.3655 13H17.1345C17.2885 13 17.4296 12.9359 17.5578 12.8077C17.6859 12.6796 17.75 12.5385 17.75 12.3845V1.6155C17.75 1.4615 17.6859 1.32042 17.5578 1.19225C17.4296 1.06408 17.2885 1 17.1345 1H2.3655C2.2115 1 2.07042 1.06408 1.94225 1.19225C1.81408 1.32042 1.75 1.4615 1.75 1.6155V12.3845C1.75 12.5385 1.81408 12.6796 1.94225 12.8077C2.07042 12.9359 2.2115 13 2.3655 13Z"
				fill="currentColor" />
		</svg>

		<svg id="not-verified" width="19" height="20" viewBox="0 0 19 20" fill="none"
			xmlns="http://www.w3.org/2000/svg">
			<path
				d="M15.1152 10.6348L16.1152 11.6348V17.5C16.1152 17.9603 15.9611 18.3447 15.6527 18.653C15.3444 18.9613 14.9601 19.1155 14.4997 19.1155H1.73073C1.2704 19.1155 0.886068 18.9613 0.577734 18.653C0.269401 18.3447 0.115234 17.9603 0.115234 17.5V4.73101C0.115234 4.27068 0.269401 3.88635 0.577734 3.57802C0.886068 3.26968 1.2704 3.11552 1.73073 3.11552H7.09598C7.03965 3.30018 7.00057 3.4736 6.97873 3.63577C6.9569 3.79793 6.93573 3.95785 6.91523 4.11552H1.73073C1.57673 4.11552 1.43565 4.1796 1.30748 4.30777C1.17932 4.43593 1.11523 4.57701 1.11523 4.73101V17.5C1.11523 17.654 1.17932 17.7951 1.30748 17.9233C1.43565 18.0514 1.57673 18.1155 1.73073 18.1155H14.4997C14.6537 18.1155 14.7948 18.0514 14.923 17.9233C15.0512 17.7951 15.1152 17.654 15.1152 17.5V10.6348ZM15.569 6.86176L18.8845 10.177L18.1767 10.8848L14.8615 7.56927C14.5627 7.83343 14.2165 8.02902 13.823 8.15601C13.4293 8.28285 13.0267 8.34626 12.6152 8.34626C11.5704 8.34626 10.6874 7.98568 9.96623 7.26452C9.24507 6.54335 8.88448 5.66035 8.88448 4.61552C8.88448 3.57068 9.24507 2.68768 9.96623 1.96651C10.6874 1.24535 11.5704 0.884766 12.6152 0.884766C13.6601 0.884766 14.5431 1.24535 15.2642 1.96651C15.9854 2.68768 16.346 3.57068 16.346 4.61552C16.346 5.06552 16.2762 5.47768 16.1365 5.85202C15.9967 6.22635 15.8075 6.56293 15.569 6.86176ZM12.6152 7.34626C13.3794 7.34626 14.0256 7.08218 14.5537 6.55401C15.0819 6.02585 15.346 5.37968 15.346 4.61552C15.346 3.85135 15.0819 3.20518 14.5537 2.67702C14.0256 2.14885 13.3794 1.88477 12.6152 1.88477C11.8511 1.88477 11.2049 2.14885 10.6767 2.67702C10.1486 3.20518 9.88448 3.85135 9.88448 4.61552C9.88448 5.37968 10.1486 6.02585 10.6767 6.55401C11.2049 7.08218 11.8511 7.34626 12.6152 7.34626ZM1.11523 18.1155V4.11552V10.3463V10.0655V18.1155Z"
				fill="currentColor" />
		</svg>

		<svg id="total" width="19" height="12" viewBox="0 0 19 12" fill="none" xmlns="http://www.w3.org/2000/svg">
			<path
				d="M5.7885 11.3655L5.08075 10.6578L7.2155 8.51177C5.27433 8.2541 3.62817 7.7701 2.277 7.05977C0.925667 6.34943 0.25 5.5411 0.25 4.63477C0.25 3.5591 1.12275 2.62352 2.86825 1.82802C4.61375 1.03252 6.741 0.634766 9.25 0.634766C11.759 0.634766 13.8863 1.03252 15.6318 1.82802C17.3773 2.62352 18.25 3.5591 18.25 4.63477C18.25 5.36043 17.7952 6.04827 16.8855 6.69827C15.976 7.34827 14.7642 7.8476 13.25 8.19627V7.18477C14.5333 6.85143 15.5208 6.43893 16.2125 5.94727C16.9042 5.4556 17.25 5.0181 17.25 4.63477C17.25 4.06293 16.5375 3.42002 15.1125 2.70602C13.6875 1.99185 11.7333 1.63477 9.25 1.63477C6.76667 1.63477 4.8125 1.99185 3.3875 2.70602C1.9625 3.42002 1.25 4.06293 1.25 4.63477C1.25 5.11177 1.80317 5.64543 2.9095 6.23577C4.016 6.8261 5.41667 7.24368 7.1115 7.48852L5.08075 5.45777L5.7885 4.75027L9.09625 8.05777L5.7885 11.3655Z"
				fill="currentColor" />
		</svg>

	</defs>
</svg>