<svg xmlns="http://www.w3.org/2000/svg" viewBox="0 0 1128 552">
	<defs>

		<svg id="accepted" width="24" height="18" viewBox="0 0 24 18" fill="none" xmlns="http://www.w3.org/2000/svg">
			<path
				d="M10.7391 11.0836L16.561 5.48667L15.7241 4.67803L10.7391 9.4947L8.24661 7.08637L7.41647 7.88848L10.7391 11.0836ZM0 17.5V16.3667H24V17.5H0ZM3.33847 15.2333C2.79852 15.2333 2.34773 15.0586 1.98607 14.7092C1.62442 14.3597 1.44359 13.9242 1.44359 13.4027V2.3309C1.44359 1.80919 1.62442 1.37361 1.98607 1.02417C2.34773 0.674722 2.79852 0.5 3.33847 0.5H20.6615C21.2015 0.5 21.6523 0.674722 22.0139 1.02417C22.3756 1.37361 22.5564 1.80919 22.5564 2.3309V13.4027C22.5564 13.9242 22.3756 14.3597 22.0139 14.7092C21.6523 15.0586 21.2015 15.2333 20.6615 15.2333H3.33847ZM3.33847 14.1H20.6615C20.8422 14.1 21.0077 14.0274 21.158 13.8821C21.3083 13.7369 21.3835 13.5771 21.3835 13.4027V2.3309C21.3835 2.15656 21.3083 1.99666 21.158 1.85122C21.0077 1.70596 20.8422 1.63333 20.6615 1.63333H3.33847C3.15783 1.63333 2.99235 1.70596 2.84202 1.85122C2.69169 1.99666 2.61652 2.15656 2.61652 2.3309V13.4027C2.61652 13.5771 2.69169 13.7369 2.84202 13.8821C2.99235 14.0274 3.15783 14.1 3.33847 14.1Z"
				fill="currentColor" />
		</svg>

		<svg id="rejected" width="19" height="14" viewBox="0 0 19 14" fill="none" xmlns="http://www.w3.org/2000/svg">
			<path
				d="M7.15 10.3077L9.75 7.70775L12.35 10.3077L13.0577 9.6L10.4578 7L13.0577 4.4L12.35 3.69225L9.75 6.29225L7.15 3.69225L6.44225 4.4L9.04225 7L6.44225 9.6L7.15 10.3077ZM2.3655 14C1.90517 14 1.52083 13.8458 1.2125 13.5375C0.904167 13.2292 0.75 12.8448 0.75 12.3845V1.6155C0.75 1.15517 0.904167 0.770833 1.2125 0.4625C1.52083 0.154167 1.90517 0 2.3655 0H17.1345C17.5948 0 17.9792 0.154167 18.2875 0.4625C18.5958 0.770833 18.75 1.15517 18.75 1.6155V12.3845C18.75 12.8448 18.5958 13.2292 18.2875 13.5375C17.9792 13.8458 17.5948 14 17.1345 14H2.3655ZM2.3655 13H17.1345C17.2885 13 17.4296 12.9359 17.5578 12.8077C17.6859 12.6796 17.75 12.5385 17.75 12.3845V1.6155C17.75 1.4615 17.6859 1.32042 17.5578 1.19225C17.4296 1.06408 17.2885 1 17.1345 1H2.3655C2.2115 1 2.07042 1.06408 1.94225 1.19225C1.81408 1.32042 1.75 1.4615 1.75 1.6155V12.3845C1.75 12.5385 1.81408 12.6796 1.94225 12.8077C2.07042 12.9359 2.2115 13 2.3655 13Z"
				fill="currentColor" />
		</svg>

		<svg id="not-verified" width="19" height="20" viewBox="0 0 19 20" fill="none"
			xmlns="http://www.w3.org/2000/svg">
			<path
				d="M15.1152 10.6348L16.1152 11.6348V17.5C16.1152 17.9603 15.9611 18.3447 15.6527 18.653C15.3444 18.9613 14.9601 19.1155 14.4997 19.1155H1.73073C1.2704 19.1155 0.886068 18.9613 0.577734 18.653C0.269401 18.3447 0.115234 17.9603 0.115234 17.5V4.73101C0.115234 4.27068 0.269401 3.88635 0.577734 3.57802C0.886068 3.26968 1.2704 3.11552 1.73073 3.11552H7.09598C7.03965 3.30018 7.00057 3.4736 6.97873 3.63577C6.9569 3.79793 6.93573 3.95785 6.91523 4.11552H1.73073C1.57673 4.11552 1.43565 4.1796 1.30748 4.30777C1.17932 4.43593 1.11523 4.57701 1.11523 4.73101V17.5C1.11523 17.654 1.17932 17.7951 1.30748 17.9233C1.43565 18.0514 1.57673 18.1155 1.73073 18.1155H14.4997C14.6537 18.1155 14.7948 18.0514 14.923 17.9233C15.0512 17.7951 15.1152 17.654 15.1152 17.5V10.6348ZM15.569 6.86176L18.8845 10.177L18.1767 10.8848L14.8615 7.56927C14.5627 7.83343 14.2165 8.02902 13.823 8.15601C13.4293 8.28285 13.0267 8.34626 12.6152 8.34626C11.5704 8.34626 10.6874 7.98568 9.96623 7.26452C9.24507 6.54335 8.88448 5.66035 8.88448 4.61552C8.88448 3.57068 9.24507 2.68768 9.96623 1.96651C10.6874 1.24535 11.5704 0.884766 12.6152 0.884766C13.6601 0.884766 14.5431 1.24535 15.2642 1.96651C15.9854 2.68768 16.346 3.57068 16.346 4.61552C16.346 5.06552 16.2762 5.47768 16.1365 5.85202C15.9967 6.22635 15.8075 6.56293 15.569 6.86176ZM12.6152 7.34626C13.3794 7.34626 14.0256 7.08218 14.5537 6.55401C15.0819 6.02585 15.346 5.37968 15.346 4.61552C15.346 3.85135 15.0819 3.20518 14.5537 2.67702C14.0256 2.14885 13.3794 1.88477 12.6152 1.88477C11.8511 1.88477 11.2049 2.14885 10.6767 2.67702C10.1486 3.20518 9.88448 3.85135 9.88448 4.61552C9.88448 5.37968 10.1486 6.02585 10.6767 6.55401C11.2049 7.08218 11.8511 7.34626 12.6152 7.34626ZM1.11523 18.1155V4.11552V10.3463V10.0655V18.1155Z"
				fill="currentColor" />
		</svg>

		<svg id="total" width="19" height="12" viewBox="0 0 19 12" fill="none" xmlns="http://www.w3.org/2000/svg">
			<path
				d="M5.7885 11.3655L5.08075 10.6578L7.2155 8.51177C5.27433 8.2541 3.62817 7.7701 2.277 7.05977C0.925667 6.34943 0.25 5.5411 0.25 4.63477C0.25 3.5591 1.12275 2.62352 2.86825 1.82802C4.61375 1.03252 6.741 0.634766 9.25 0.634766C11.759 0.634766 13.8863 1.03252 15.6318 1.82802C17.3773 2.62352 18.25 3.5591 18.25 4.63477C18.25 5.36043 17.7952 6.04827 16.8855 6.69827C15.976 7.34827 14.7642 7.8476 13.25 8.19627V7.18477C14.5333 6.85143 15.5208 6.43893 16.2125 5.94727C16.9042 5.4556 17.25 5.0181 17.25 4.63477C17.25 4.06293 16.5375 3.42002 15.1125 2.70602C13.6875 1.99185 11.7333 1.63477 9.25 1.63477C6.76667 1.63477 4.8125 1.99185 3.3875 2.70602C1.9625 3.42002 1.25 4.06293 1.25 4.63477C1.25 5.11177 1.80317 5.64543 2.9095 6.23577C4.016 6.8261 5.41667 7.24368 7.1115 7.48852L5.08075 5.45777L5.7885 4.75027L9.09625 8.05777L5.7885 11.3655Z"
				fill="currentColor" />
		</svg>

		<svg id="dashboard" width="20" height="20" viewBox="0 0 20 20" fill="none" xmlns="http://www.w3.org/2000/svg">
			<path fill-rule="evenodd" clip-rule="evenodd"
				d="M8.63107 4.3262C9.42808 3.66991 10.5719 3.66991 11.3689 4.3262L14.7023 7.07098C15.2064 7.48611 15.5 8.10879 15.5 8.76754V13.9785C15.5 15.1913 14.5261 16.1673 13.3333 16.1673H6.66667C5.47393 16.1673 4.5 15.1913 4.5 13.9785V8.76754C4.5 8.10879 4.7936 7.48611 5.29774 7.07098L8.63107 4.3262ZM12.0046 3.55423C10.8383 2.5939 9.16166 2.5939 7.99541 3.55423L4.66208 6.29902C3.92592 6.90519 3.5 7.81167 3.5 8.76754V13.9785C3.5 15.7358 4.91388 17.1673 6.66667 17.1673H13.3333C15.0861 17.1673 16.5 15.7358 16.5 13.9785V8.76754C16.5 7.81167 16.0741 6.90519 15.3379 6.29902L12.0046 3.55423ZM8.66667 13.5007C8.39052 13.5007 8.16667 13.7245 8.16667 14.0007C8.16667 14.2768 8.39052 14.5007 8.66667 14.5007H11.3333C11.6095 14.5007 11.8333 14.2768 11.8333 14.0007C11.8333 13.7245 11.6095 13.5007 11.3333 13.5007H8.66667Z"
				fill="white" />
		</svg>


		<svg id="no-comments" width="174" height="164" viewBox="0 0 174 164" fill="none"
			xmlns="http://www.w3.org/2000/svg">
			<path
				d="M105.642 84.2999C102.843 81.4988 98.5083 81.5671 95.7756 84.2999L87.0418 93.0336L78.3081 84.2999C75.5754 81.5671 71.0425 81.5671 68.3081 84.2999C65.5548 87.191 65.7357 91.5987 68.3081 94.2999L77.0418 103.034L68.3748 111.701C66.9751 113.1 66.3086 114.832 66.3086 116.632C66.3086 118.367 66.9751 120.233 68.3748 121.632C71.1092 124.367 75.5086 124.367 78.2422 121.632L86.9751 112.9L95.7088 121.632C98.4416 124.367 102.843 124.367 105.575 121.632C108.375 118.899 108.375 114.433 105.642 111.701L96.9084 102.967L105.642 94.2332C108.375 91.4988 108.375 87.0326 105.642 84.2999Z"
				fill="currentColor" />
			<path
				d="M150.934 10.4609H148.268C148.268 11.4606 148.268 27.9354 148.268 27.2611C148.268 38.2612 139.334 47.2611 128.268 47.2611C117.267 47.2611 108.268 38.2612 108.268 27.2611C108.268 24.2877 108.268 9.77637 108.268 10.4609H65.7336V23.7943V27.2611C65.7336 38.2612 56.7337 47.2611 45.7336 47.2611C34.6675 47.2611 25.7336 38.2612 25.7336 27.2611C25.7336 24.2877 25.7336 9.77637 25.7336 10.4609H23.0675C10.5334 10.4609 0.333984 20.6611 0.333984 33.1945V53.9945V140.928C0.333984 153.461 10.5334 163.661 23.0675 163.661H150.934C163.467 163.661 173.667 153.461 173.667 140.928V53.9945V33.1945C173.667 20.6611 163.467 10.4609 150.934 10.4609ZM150.934 150.327H23.0675C17.8674 150.327 13.6673 146.128 13.6673 140.928V60.6611H160.334V140.928C160.334 146.128 156.134 150.327 150.934 150.327Z"
				fill="currentColor" />
			<path
				d="M45.7155 33.9121C49.3971 33.9121 52.3822 30.9303 52.3822 27.2454V7.00456C52.3822 3.31966 49.3971 0.337891 45.7155 0.337891C42.0339 0.337891 39.0488 3.31966 39.0488 7.00456V27.2454C39.0488 30.9303 42.0339 33.9121 45.7155 33.9121Z"
				fill="currentColor" />
			<path
				d="M128.278 33.9121C131.96 33.9121 134.945 30.9303 134.945 27.2454V7.00456C134.945 3.31966 131.96 0.337891 128.278 0.337891C124.596 0.337891 121.611 3.31966 121.611 7.00456V27.2454C121.611 30.9303 124.596 33.9121 128.278 33.9121Z"
				fill="currentColor" />
		</svg>


		<svg id="no-image" width="174" height="164" viewBox="0 0 32 32" fill="currentColor"
			xmlns="http://www.w3.org/2000/svg">
			<g data-name="no image">
				<path
					d="M24 2H8a6 6 0 0 0-6 6v16a6 6 0 0 0 6 6h3a1 1 0 0 0 0-2H8a4 4 0 0 1-4-4V8a4 4 0 0 1 4-4h16a4 4 0 0 1 4 4v16a4 4 0 0 1-4 4h-9a1 1 0 0 0 0 2h9a6 6 0 0 0 6-6V8a6 6 0 0 0-6-6z" />
				<path
					d="M25.71 6.29a1 1 0 0 0-1.42 0l-18 18a1 1 0 0 0 0 1.42 1 1 0 0 0 1.42 0l18-18a1 1 0 0 0 0-1.42z" />
			</g>
		</svg>

		<svg id="expand-video" width="18" height="18" viewBox="0 0 18 18" fill="none"
			xmlns="http://www.w3.org/2000/svg">
			<path
				d="M3.38359 0.253906C1.66044 0.253906 0.25 1.65945 0.25 3.3826V14.6479C0.25 16.371 1.66044 17.7815 3.38359 17.7815H14.6489C16.372 17.7815 17.7776 16.371 17.7776 14.6479V3.3826C17.7776 1.65945 16.372 0.253906 14.6489 0.253906H3.38359ZM3.38359 1.50587H14.6489C15.7001 1.50587 16.5256 2.33139 16.5256 3.3826V14.6479C16.5256 15.6991 15.7001 16.5295 14.6489 16.5295H3.38359C2.33237 16.5295 1.50197 15.6991 1.50197 14.6479V3.3826C1.50197 2.33139 2.33237 1.50587 3.38359 1.50587ZM10.9064 3.37405C10.5748 3.38162 10.3067 3.64653 10.2951 3.97802C10.2827 4.32291 10.5518 4.61276 10.8966 4.62602L12.4506 4.67859L9.82438 7.35125C9.58036 7.598 9.58365 7.99618 9.83172 8.23887C10.0789 8.48059 10.4752 8.47621 10.7169 8.22909L13.326 5.57599L13.3761 7.1055C13.3894 7.44985 13.6785 7.71872 14.0229 7.70703C14.3677 7.69573 14.6384 7.40756 14.6281 7.0627L14.5266 4.0795C14.5266 3.67316 14.3294 3.47552 13.9226 3.47552C12.9183 3.44136 11.9083 3.40647 10.9064 3.37405ZM7.32289 9.85274L4.70402 12.4716L4.6539 10.9274C4.64063 10.5831 4.35154 10.3142 4.00713 10.3259C3.66231 10.3372 3.39164 10.6254 3.40193 10.9702L3.50341 13.9534C3.50341 14.3341 3.76196 14.5574 4.10738 14.5574L7.09059 14.6589C7.43498 14.6692 7.72295 14.3992 7.73491 14.0549C7.7473 13.71 7.47823 13.4202 7.13338 13.4069L5.59043 13.3556L8.20807 10.7379C8.4689 10.4771 8.44774 10.0973 8.20807 9.84907C7.9512 9.59221 7.57128 9.60432 7.32289 9.85274Z"
				fill="currentColor" />
		</svg>

		<svg id="double-arrow-left" xmlns="http://www.w3.org/2000/svg" height="24px" viewBox="0 -960 960 960"
			width="24px" fill="currentColor">
			<path
				d="M440-240 200-480l240-240 56 56-183 184 183 184-56 56Zm264 0L464-480l240-240 56 56-183 184 183 184-56 56Z" />
		</svg>

		<svg id="double-arrow-right" xmlns="http://www.w3.org/2000/svg" height="24px" viewBox="0 -960 960 960"
			width="24px" fill="currentColor">
			<path
				d="M383-480 200-664l56-56 240 240-240 240-56-56 183-184Zm264 0L464-664l56-56 240 240-240 240-56-56 183-184Z" />
		</svg>

		<svg id="font" xmlns="http://www.w3.org/2000/svg" xml:space="preserve" width="655.359" height="655.359"
			style="shape-rendering:geometricPrecision;text-rendering:geometricPrecision;image-rendering:optimizeQuality;fill-rule:evenodd;clip-rule:evenodd"
			viewBox="0 0 6.827 6.827">
			<defs>
				<style>
					.fil0 {
						fill: none
					}
				</style>
			</defs>
			<g id="Layer_x0020_1">
				<g id="_494673176">
					<path id="_494673440" class="fil0" d="M0 0h6.827v6.827H0z" />
					<path id="_494673128" class="fil0" d="M.853.853h5.12v5.12H.853z" />
				</g>
				<path
					d="M5.382 3.794a2.66 2.66 0 0 1-.595.139c-.15.02-.257.045-.318.072a.31.31 0 0 0-.195.292c0 .098.037.179.11.244.074.064.181.096.323.096.14 0 .266-.03.375-.092a.57.57 0 0 0 .242-.252.876.876 0 0 0 .058-.365v-.134zm.03.815a1.383 1.383 0 0 1-.39.244c-.124.047-.259.07-.402.07-.236 0-.418-.057-.545-.173a.574.574 0 0 1-.19-.443.593.593 0 0 1 .26-.499.893.893 0 0 1 .263-.119 2.58 2.58 0 0 1 .323-.055c.295-.035.512-.076.651-.126l.003-.094c0-.149-.035-.254-.104-.314-.093-.083-.232-.124-.415-.124-.172 0-.298.03-.38.09-.082.06-.143.166-.182.32l-.356-.05a.886.886 0 0 1 .16-.37.699.699 0 0 1 .322-.216c.14-.05.303-.077.488-.077.184 0 .333.023.448.066.115.043.2.097.254.163a.58.58 0 0 1 .113.248c.012.062.018.174.018.336v.487c0 .34.008.554.024.643a.81.81 0 0 0 .092.259h-.381a.771.771 0 0 1-.073-.266z"
					style="fill:currentColor;fill-rule:nonzero" />
				<path
					d="M1.817 3.654h1.008l-.31-.822a8.099 8.099 0 0 1-.21-.616c-.039.19-.092.38-.161.567l-.327.871zM.96 4.874l1.141-2.97h.424l1.216 2.97h-.448l-.347-.9H1.704l-.326.9H.96z"
					style="fill:currentColor;fill-rule:nonzero" />
			</g>
		</svg>

	</defs>
</svg>