<?xml version="1.0" encoding="UTF-8"?>
<svg version="1.1" xmlns="http://www.w3.org/2000/svg" width="557" height="557" viewBox="0 -54.5 557 557">
<!--
  Original dimensions: width=557, height=448.
  To make it square (557x557), the viewBox height is increased and centered
  by shifting the Y coordinate up by (557 - 448) / 2 = 54.5.
-->
<path d="M0,0 L9,0 L9,1 L24,1 L24,2 L32,2 L32,3 L40,3 L40,4 L45,4 L45,5 L49,5 L49,6 L53,6 L53,7 L57,7 L57,8 L60,8 L60,9 L64,9 L64,10 L67,10 L67,11 L70,11 L70,12 L72,12 L72,13 L74,13 L74,14 L77,14 L77,15 L79,15 L79,16 L82,16 L82,17 L84,17 L84,18 L86,18 L86,19 L88,19 L88,20 L90,20 L90,21 L92,21 L92,22 L94,22 L94,23 L96,23 L96,24 L97,24 L97,25 L99,25 L99,26 L100,26 L100,27 L102,27 L102,28 L103,28 L103,29 L105,29 L105,30 L107,30 L107,31 L108,31 L108,32 L110,32 L110,33 L111,33 L111,34 L112,34 L112,35 L114,35 L114,36 L115,36 L115,37 L116,37 L116,38 L118,38 L118,40 L119,40 L119,41 L121,41 L121,42 L122,42 L122,43 L123,43 L123,44 L124,44 L124,45 L125,45 L125,46 L126,46 L126,47 L127,47 L127,48 L129,48 L129,49 L130,49 L130,50 L131,50 L131,52 L132,52 L132,53 L133,53 L133,54 L134,54 L134,55 L135,55 L135,56 L136,56 L136,57 L137,57 L137,59 L138,59 L138,60 L139,60 L139,61 L140,61 L140,63 L141,63 L141,64 L142,64 L142,65 L143,65 L143,67 L144,67 L144,69 L145,69 L145,70 L146,70 L146,72 L147,72 L147,73 L148,73 L148,75 L149,75 L149,76 L150,76 L150,78 L151,78 L151,81 L152,81 L152,83 L153,83 L153,85 L154,85 L154,87 L155,87 L155,89 L156,89 L156,92 L157,92 L157,95 L158,95 L158,98 L159,98 L159,102 L160,102 L160,106 L161,106 L161,110 L162,110 L162,116 L163,116 L163,143 L162,143 L162,149 L161,149 L161,153 L160,153 L160,157 L159,157 L159,160 L158,160 L158,163 L157,163 L157,167 L156,167 L156,170 L155,170 L155,172 L154,172 L154,174 L153,174 L153,176 L152,176 L152,178 L151,178 L151,181 L150,181 L150,182 L149,182 L149,184 L148,184 L148,186 L147,186 L147,187 L146,187 L146,189 L145,189 L145,190 L144,190 L144,192 L143,192 L143,193 L142,193 L142,195 L141,195 L141,196 L140,196 L140,198 L138,198 L138,200 L137,200 L137,201 L136,201 L136,203 L135,203 L135,204 L134,204 L134,205 L133,205 L133,206 L132,206 L132,207 L131,207 L131,208 L130,208 L130,209 L129,209 L129,210 L128,210 L128,211 L127,211 L127,212 L126,212 L126,213 L125,213 L125,214 L124,214 L124,215 L123,215 L123,216 L122,216 L122,217 L121,217 L121,218 L119,218 L119,219 L118,219 L118,220 L117,220 L117,221 L116,221 L116,222 L115,222 L115,223 L113,223 L113,224 L112,224 L112,225 L111,225 L111,226 L109,226 L109,227 L108,227 L108,228 L106,228 L106,229 L105,229 L105,230 L104,230 L104,231 L102,231 L102,232 L100,232 L100,233 L99,233 L99,234 L97,234 L97,235 L95,235 L95,236 L94,236 L94,237 L91,237 L91,238 L89,238 L89,239 L87,239 L87,240 L86,240 L86,241 L84,241 L84,242 L82,242 L82,243 L79,243 L79,244 L76,244 L76,245 L74,245 L74,246 L72,246 L72,247 L69,247 L69,248 L67,248 L67,249 L64,249 L64,250 L59,250 L59,251 L56,251 L56,252 L53,252 L53,253 L49,253 L49,254 L45,254 L45,255 L40,255 L40,256 L34,256 L34,257 L22,257 L22,258 L-13,258 L-13,257 L-25,257 L-25,256 L-31,256 L-31,255 L-36,255 L-36,254 L-40,254 L-40,253 L-44,253 L-44,252 L-47,252 L-47,251 L-50,251 L-50,250 L-55,250 L-55,249 L-58,249 L-58,248 L-60,248 L-60,247 L-63,247 L-63,246 L-65,246 L-65,245 L-67,245 L-67,244 L-70,244 L-70,243 L-73,243 L-73,242 L-75,242 L-75,241 L-77,241 L-77,240 L-78,240 L-78,239 L-80,239 L-80,238 L-82,238 L-82,237 L-85,237 L-85,236 L-86,236 L-86,235 L-88,235 L-88,234 L-90,234 L-90,233 L-91,233 L-91,232 L-93,232 L-93,231 L-95,231 L-95,230 L-96,230 L-96,229 L-97,229 L-97,228 L-99,228 L-99,227 L-100,227 L-100,226 L-102,226 L-102,225 L-103,225 L-103,224 L-104,224 L-104,223 L-106,223 L-106,222 L-107,222 L-107,221 L-108,221 L-108,220 L-109,220 L-109,219 L-110,219 L-110,218 L-112,218 L-112,217 L-113,217 L-113,216 L-114,216 L-114,215 L-115,215 L-115,214 L-116,214 L-116,213 L-117,213 L-117,212 L-118,212 L-118,211 L-119,211 L-119,210 L-120,210 L-120,209 L-121,209 L-121,208 L-122,208 L-122,207 L-123,207 L-123,206 L-124,206 L-124,205 L-125,205 L-125,204 L-126,204 L-126,203 L-127,203 L-127,201 L-128,201 L-128,200 L-129,200 L-129,198 L-131,198 L-131,196 L-132,196 L-132,195 L-133,195 L-133,194 L-134,194 L-134,192 L-135,192 L-135,190 L-136,190 L-136,189 L-137,189 L-137,187 L-138,187 L-138,186 L-139,186 L-139,184 L-140,184 L-140,183 L-141,183 L-141,181 L-142,181 L-142,178 L-143,178 L-143,176 L-144,176 L-144,174 L-145,174 L-145,172 L-146,172 L-146,170 L-147,170 L-147,167 L-148,167 L-148,164 L-149,164 L-149,160 L-150,160 L-150,157 L-151,157 L-151,153 L-152,153 L-152,149 L-153,149 L-153,143 L-154,143 L-154,116 L-153,116 L-153,110 L-152,110 L-152,106 L-151,106 L-151,102 L-150,102 L-150,98 L-149,98 L-149,95 L-148,95 L-148,92 L-147,92 L-147,89 L-146,89 L-146,87 L-145,87 L-145,85 L-144,85 L-144,83 L-143,83 L-143,81 L-142,81 L-142,78 L-141,78 L-141,76 L-140,76 L-140,75 L-139,75 L-139,73 L-138,73 L-138,72 L-137,72 L-137,70 L-136,70 L-136,69 L-135,69 L-135,67 L-134,67 L-134,65 L-133,65 L-133,64 L-132,64 L-132,63 L-131,63 L-131,61 L-130,61 L-130,60 L-129,60 L-129,59 L-128,59 L-128,57 L-127,57 L-127,56 L-126,56 L-126,55 L-125,55 L-125,54 L-124,54 L-124,53 L-123,53 L-123,52 L-122,52 L-122,50 L-121,50 L-121,49 L-120,49 L-120,48 L-118,48 L-118,47 L-117,47 L-117,46 L-116,46 L-116,45 L-115,45 L-115,44 L-114,44 L-114,43 L-113,43 L-113,42 L-112,42 L-112,41 L-110,41 L-110,40 L-109,40 L-109,38 L-107,38 L-107,37 L-106,37 L-106,36 L-105,36 L-105,35 L-103,35 L-103,34 L-102,34 L-102,33 L-101,33 L-101,32 L-99,32 L-99,31 L-98,31 L-98,30 L-96,30 L-96,29 L-94,29 L-94,28 L-93,28 L-93,27 L-91,27 L-91,26 L-90,26 L-90,25 L-88,25 L-88,24 L-87,24 L-87,23 L-85,23 L-85,22 L-83,22 L-83,21 L-81,21 L-81,20 L-79,20 L-79,19 L-77,19 L-77,18 L-75,18 L-75,17 L-73,17 L-73,16 L-70,16 L-70,15 L-68,15 L-68,14 L-65,14 L-65,13 L-63,13 L-63,12 L-61,12 L-61,11 L-58,11 L-58,10 L-55,10 L-55,9 L-51,9 L-51,8 L-48,8 L-48,7 L-44,7 L-44,6 L-40,6 L-40,5 L-36,5 L-36,4 L-31,4 L-31,3 L-23,3 L-23,2 L-15,2 L-15,1 L0,1 Z M-114,69 L-114,70 L-113,70 L-113,71 L-111,71 L-111,72 L-109,72 L-109,73 L-108,73 L-108,74 L-106,74 L-106,75 L-104,75 L-104,76 L-103,76 L-103,77 L-102,77 L-102,78 L-100,78 L-100,79 L-99,79 L-99,80 L-97,80 L-97,81 L-95,81 L-95,82 L-94,82 L-94,83 L-93,83 L-93,84 L-92,84 L-92,85 L-91,85 L-91,86 L-89,86 L-89,87 L-88,87 L-88,88 L-87,88 L-87,89 L-85,89 L-85,90 L-84,90 L-84,91 L-83,91 L-83,92 L-82,92 L-82,93 L-81,93 L-81,94 L-79,94 L-79,95 L-78,95 L-78,96 L-77,96 L-77,97 L-76,97 L-76,98 L-75,98 L-75,99 L-74,99 L-74,100 L-73,100 L-73,101 L-72,101 L-72,102 L-71,102 L-71,103 L-70,103 L-70,104 L-69,104 L-69,105 L-68,105 L-68,106 L-67,106 L-67,107 L-66,107 L-66,108 L-65,108 L-65,109 L-64,109 L-64,110 L-63,110 L-63,111 L-62,111 L-62,112 L-61,112 L-61,113 L-60,113 L-60,114 L-59,114 L-59,115 L-58,115 L-58,116 L-57,116 L-57,118 L-56,118 L-56,119 L-55,119 L-55,120 L-54,120 L-54,121 L-53,121 L-53,122 L-52,122 L-52,123 L-51,123 L-51,125 L-50,125 L-50,126 L-49,126 L-49,127 L-48,127 L-48,129 L-47,129 L-47,130 L-46,130 L-46,131 L-45,131 L-45,132 L-44,132 L-44,134 L-43,134 L-43,135 L-42,135 L-42,137 L-41,137 L-41,138 L-40,138 L-40,139 L-39,139 L-39,140 L-38,140 L-38,142 L-37,142 L-37,144 L-36,144 L-36,145 L-35,145 L-35,146 L-34,146 L-34,148 L-33,148 L-33,149 L-32,149 L-32,151 L-31,151 L-31,153 L-30,153 L-30,154 L-29,154 L-29,156 L-28,156 L-28,158 L-27,158 L-27,159 L-26,159 L-26,160 L-25,160 L-25,162 L-24,162 L-24,165 L-23,165 L-23,166 L-22,166 L-22,168 L-21,168 L-21,170 L-20,170 L-20,171 L-19,171 L-19,173 L-18,173 L-18,176 L-17,176 L-17,178 L-16,178 L-16,180 L-15,180 L-15,182 L-14,182 L-14,184 L-13,184 L-13,185 L-12,185 L-12,188 L-11,188 L-11,191 L-10,191 L-10,193 L-9,193 L-9,196 L-8,196 L-8,198 L-7,198 L-7,200 L-6,200 L-6,203 L-5,203 L-5,207 L-4,207 L-4,210 L-3,210 L-3,212 L-2,212 L-2,216 L-1,216 L-1,219 L0,219 L0,223 L1,223 L1,226 L2,226 L2,233 L3,233 L3,238 L4,238 L4,246 L5,246 L5,238 L6,238 L6,233 L7,233 L7,226 L8,226 L8,223 L9,223 L9,219 L10,219 L10,216 L11,216 L11,212 L12,212 L12,210 L13,210 L13,207 L14,207 L14,203 L15,203 L15,200 L16,200 L16,198 L17,198 L17,196 L18,196 L18,193 L19,193 L19,191 L20,191 L20,188 L21,188 L21,185 L22,185 L22,184 L23,184 L23,182 L24,182 L24,180 L25,180 L25,178 L26,178 L26,176 L27,176 L27,173 L28,173 L28,171 L29,171 L29,170 L30,170 L30,168 L31,168 L31,166 L32,166 L32,165 L33,165 L33,162 L34,162 L34,160 L35,160 L35,159 L36,159 L36,158 L37,158 L37,156 L38,156 L38,154 L39,154 L39,153 L40,153 L40,151 L41,151 L41,149 L42,149 L42,148 L43,148 L43,146 L44,146 L44,145 L45,145 L45,144 L46,144 L46,142 L47,142 L47,140 L48,140 L48,139 L49,139 L49,138 L50,138 L50,137 L51,137 L51,135 L52,135 L52,134 L53,134 L53,132 L54,132 L54,131 L55,131 L55,130 L56,130 L56,129 L57,129 L57,127 L58,127 L58,126 L59,126 L59,125 L60,125 L60,123 L61,123 L61,122 L62,122 L62,121 L63,121 L63,120 L64,120 L64,119 L65,119 L65,118 L66,118 L66,116 L67,116 L67,115 L68,115 L68,114 L69,114 L69,113 L70,113 L70,112 L71,112 L71,111 L72,111 L72,110 L73,110 L73,109 L74,109 L74,108 L75,108 L75,107 L76,107 L76,106 L77,106 L77,105 L78,105 L78,104 L79,104 L79,103 L80,103 L80,102 L81,102 L81,101 L82,101 L82,100 L83,100 L83,99 L84,99 L84,98 L85,98 L85,97 L86,97 L86,96 L87,96 L87,95 L88,95 L88,94 L90,94 L90,93 L91,93 L91,92 L92,92 L92,91 L93,91 L93,90 L94,90 L94,89 L96,89 L96,88 L97,88 L97,87 L98,87 L98,86 L99,86 L99,85 L101,85 L101,84 L102,84 L102,83 L103,83 L103,82 L104,82 L104,81 L106,81 L106,80 L108,80 L108,79 L109,79 L109,78 L111,78 L111,77 L112,77 L112,76 L113,76 L113,75 L115,75 L115,74 L117,74 L117,73 L118,73 L118,72 L120,72 L120,71 L122,71 L122,70 L123,70 L123,69 L121,69 L121,70 L118,70 L118,71 L116,71 L116,72 L113,72 L113,73 L110,73 L110,74 L107,74 L107,75 L102,75 L102,76 L99,76 L99,77 L95,77 L95,78 L92,78 L92,79 L88,79 L88,80 L85,80 L85,81 L80,81 L80,82 L74,82 L74,83 L70,83 L70,84 L65,84 L65,85 L60,85 L60,86 L54,86 L54,87 L47,87 L47,88 L35,88 L35,89 L24,89 L24,90 L-15,90 L-15,89 L-26,89 L-26,88 L-38,88 L-38,87 L-45,87 L-45,86 L-51,86 L-51,85 L-56,85 L-56,84 L-60,84 L-60,83 L-65,83 L-65,82 L-71,82 L-71,81 L-76,81 L-76,80 L-79,80 L-79,79 L-83,79 L-83,78 L-86,78 L-86,77 L-90,77 L-90,76 L-93,76 L-93,75 L-98,75 L-98,74 L-101,74 L-101,73 L-104,73 L-104,72 L-107,72 L-107,71 L-109,71 L-109,70 L-112,70 L-112,69 Z " fill="#E63917" transform="scale(1.7364) translate(154 0) translate(3.2 0)"/>
</svg>
